<svg xmlns="http://www.w3.org/2000/svg" viewBox="0 0 96 96" role="img" aria-label="Pombo News">
  <style>:root{--ink:#10264d;--blue:#1677ff;--gold:#f4b400}@media(prefers-color-scheme:dark){:root{--ink:#f4f7fb;--blue:#45a3ff;--gold:#ffd23f}}.ink{fill:var(--ink)}.blue{fill:var(--blue)}.gold{fill:var(--gold)}</style>
  <circle cx="48" cy="48" r="42" fill="none" stroke="var(--blue)" stroke-width="5" opacity=".9"/>
  <path class="blue" d="M12 70c18-3 30-12 39-27-10 4-20 3-29-1 11-5 20-13 26-23-12 3-21 1-29-5 17 0 29-6 40-14 12 7 18 16 21 28l18 7-18 7c-4 13-13 22-27 27-14 5-28 4-41 1Z"/>
  <path class="ink" d="M57 21c9 2 16 6 21 12l-9 7-16-6 4-13Z"/>
  <path class="gold" d="M75 33l20 7-20 7-9-7 9-7Z"/>
  <circle cx="74" cy="38" r="2.8" class="ink"/>
  <path d="M79 45c8-1 14-4 19-9-2 8-8 14-17 17" fill="none" stroke="#32c866" stroke-width="4" stroke-linecap="round"/>
</svg>
